<?xml version="1.0" standalone="no"?>
<!DOCTYPE svg PUBLIC "-//W3C//DTD SVG 20010904//EN"
 "http://www.w3.org/TR/2001/REC-SVG-20010904/DTD/svg10.dtd">
<svg version="1.0" xmlns="http://www.w3.org/2000/svg"
 width="217.000000pt" height="217.000000pt" viewBox="0 0 217.000000 217.000000"
 preserveAspectRatio="xMidYMid meet">
<metadata>
Created by potrace 1.11, written by Peter Selinger 2001-2013
</metadata>
<g transform="translate(0.000000,217.000000) scale(0.100000,-0.100000)"
fill="#000000" stroke="none">
<path d="M699 2156 c-99 -26 -182 -98 -225 -196 -30 -70 -27 -189 8 -260 35
-72 86 -123 156 -157 49 -24 69 -28 142 -28 68 0 94 5 132 23 72 36 125 88
160 159 80 163 9 359 -158 438 -61 29 -149 37 -215 21z m156 -151 c74 -36 121
-127 104 -203 -17 -78 -87 -140 -165 -147 -187 -18 -274 236 -115 336 52 34
122 39 176 14z"/>
<path d="M1831 1918 c-121 -21 -188 -144 -142 -256 13 -31 12 -32 -94 -156
-58 -69 -110 -128 -114 -130 -4 -3 -36 5 -72 18 -77 28 -166 32 -234 12 -27
-8 -50 -14 -51 -13 -1 1 -20 32 -44 70 -23 37 -50 72 -60 77 -27 15 -66 -4
-74 -34 -7 -29 0 -44 52 -123 l34 -52 -32 -33 c-18 -18 -46 -62 -63 -98 -54
-115 -41 -270 32 -370 13 -19 31 -40 38 -46 10 -9 4 -22 -28 -65 -22 -30 -44
-59 -47 -66 -6 -9 -18 -9 -52 3 -57 20 -163 20 -218 0 -231 -83 -299 -381
-126 -552 42 -40 115 -81 164 -91 151 -31 303 44 372 184 27 56 32 76 32 142
0 80 -25 155 -71 211 l-20 24 46 63 c35 48 51 62 66 59 11 -3 40 -10 65 -16
69 -18 176 -8 242 22 l57 26 58 -64 c48 -53 63 -64 90 -64 34 0 53 21 53 57 0
11 -27 47 -60 82 l-60 63 25 42 c39 67 55 125 56 200 1 76 -25 163 -61 209
-11 14 -20 31 -20 37 0 7 48 69 107 139 l106 126 62 1 c72 2 110 19 153 68 36
41 47 87 37 152 -5 36 -16 55 -48 88 -50 49 -95 65 -156 54z m-505 -742 c59
-13 114 -94 108 -158 -14 -145 -201 -195 -285 -77 -30 43 -33 130 -5 172 39
59 103 81 182 63z m-467 -674 c72 -37 114 -139 89 -214 -35 -103 -144 -158
-238 -121 -74 29 -120 94 -120 168 0 144 142 233 269 167z"/>
<path d="M251 1204 c-176 -52 -172 -303 5 -353 73 -20 153 12 199 80 l30 45
86 -3 c74 -2 90 0 112 17 18 14 23 26 20 44 -8 42 -28 50 -129 51 -94 1 -95 1
-110 30 -39 76 -130 114 -213 89z"/>
<path d="M1772 579 c-130 -65 -128 -260 3 -327 40 -20 111 -21 155 -1 75 34
114 101 107 187 -10 127 -146 199 -265 141z"/>
</g>
</svg>
